<?xml version="1.0" encoding="UTF-8"?>
<svg id="_레이어_1" data-name="레이어_1" xmlns="http://www.w3.org/2000/svg" version="1.1" viewBox="0 0 65 60">
  <!-- Generator: Adobe Illustrator 30.4.0, SVG Export Plug-In . SVG Version: 2.1.4 Build 226)  -->
  <defs>
    <style>
      .st0 {
        fill: #fff;
      }

      .st1 {
        fill: #44b25d;
      }
    </style>
  </defs>
  <rect class="st1" width="65" height="60" rx="7.27" ry="7.27"/>
  <path class="st0" d="M5.13,51.1V8.9h16.35c5.12,0,8.86.92,11.22,2.76,2.36,1.84,3.67,4.26,3.92,7.25.11.91.08,1.84-.08,2.79-.16.95-.45,1.86-.85,2.73-.4.83-.93,1.6-1.59,2.3-.66.7-1.41,1.24-2.25,1.62,2.08,1.02,3.63,2.65,4.63,4.89,1.01,2.24,1.4,4.55,1.18,6.94-.37,3.53-1.71,6.23-4.03,8.11-2.32,1.88-5.7,2.82-10.12,2.82H5.13ZM14.67,17.83v6.94h8.56c1.21-.08,2.15-.42,2.83-1.02.68-.61,1.01-1.44,1.01-2.5s-.37-1.85-1.1-2.47c-.73-.63-1.76-.94-3.07-.94h-8.23ZM14.67,33.36v8.82h8.45c1.9.04,3.2-.38,3.89-1.25.69-.87,1.04-1.93,1.04-3.19,0-1.14-.4-2.15-1.21-3.04-.8-.89-2.19-1.34-4.17-1.34h-8.01Z"/>
  <path class="st0" d="M55.65,39.24l4.22,10.09h-6.56l-3.55-8.73h-4.12v8.73h-5.98v-26h9.56c3.42,0,6.04.74,7.86,2.23,1.81,1.48,2.72,3.66,2.72,6.54,0,1.54-.37,2.94-1.12,4.21-.74,1.26-1.76,2.24-3.04,2.94ZM45.65,35.07h4.53c1.28,0,2.24-.3,2.86-.91.62-.61.93-1.34.93-2.21,0-.93-.32-1.67-.96-2.21-.64-.54-1.56-.81-2.75-.81h-4.6v6.13Z"/>
  <rect class="st0" x="39.67" y="15.86" width="15.74" height="3.12"/>
</svg>